<svg width="24" height="24" viewBox="0 0 24 24" fill="none" xmlns="http://www.w3.org/2000/svg">
<mask id="mask0_6_14" style="mask-type:alpha" maskUnits="userSpaceOnUse" x="0" y="0" width="24" height="24">
<rect width="24" height="24" fill="#D9D9D9"/>
</mask>
<g mask="url(#mask0_6_14)">
<path d="M16.9667 18.25L11.1917 12.475C10.7333 12.8417 10.2063 13.1319 9.61042 13.3458C9.01458 13.5597 8.38056 13.6667 7.70833 13.6667C6.04306 13.6667 4.63368 13.0899 3.48021 11.9365C2.32674 10.783 1.75 9.37361 1.75 7.70833C1.75 6.04306 2.32674 4.63368 3.48021 3.48021C4.63368 2.32674 6.04306 1.75 7.70833 1.75C9.37361 1.75 10.783 2.32674 11.9365 3.48021C13.0899 4.63368 13.6667 6.04306 13.6667 7.70833C13.6667 8.38056 13.5597 9.01458 13.3458 9.61042C13.1319 10.2063 12.8417 10.7333 12.475 11.1917L18.25 16.9667L16.9667 18.25ZM7.70833 11.8333C8.85417 11.8333 9.82812 11.4323 10.6302 10.6302C11.4323 9.82812 11.8333 8.85417 11.8333 7.70833C11.8333 6.5625 11.4323 5.58854 10.6302 4.78646C9.82812 3.98438 8.85417 3.58333 7.70833 3.58333C6.5625 3.58333 5.58854 3.98438 4.78646 4.78646C3.98438 5.58854 3.58333 6.5625 3.58333 7.70833C3.58333 8.85417 3.98438 9.82812 4.78646 10.6302C5.58854 11.4323 6.5625 11.8333 7.70833 11.8333Z" fill="#1C1B1F"/>
</g>
</svg>
