<svg width="35" height="35" viewBox="0 0 35 35" fill="none" xmlns="http://www.w3.org/2000/svg">
<g id="check_circle">
<mask id="mask0_18_84" style="mask-type:alpha" maskUnits="userSpaceOnUse" x="0" y="0" width="35" height="35">
<rect id="Bounding box" width="35" height="35" fill="#D9D9D9"/>
</mask>
<g mask="url(#mask0_18_84)">
<path id="check_circle_2" d="M15.4583 24.2083L25.7395 13.9271L23.6979 11.8854L15.4583 20.125L11.302 15.9687L9.26038 18.0104L15.4583 24.2083ZM17.5 32.0833C15.4826 32.0833 13.5868 31.7005 11.8125 30.9349C10.0382 30.1693 8.49475 29.1302 7.18225 27.8177C5.86975 26.5052 4.83069 24.9618 4.06506 23.1875C3.29944 21.4132 2.91663 19.5173 2.91663 17.5C2.91663 15.4826 3.29944 13.5868 4.06506 11.8125C4.83069 10.0382 5.86975 8.49478 7.18225 7.18228C8.49475 5.86978 10.0382 4.83072 11.8125 4.06509C13.5868 3.29947 15.4826 2.91666 17.5 2.91666C19.5173 2.91666 21.4132 3.29947 23.1875 4.06509C24.9618 4.83072 26.5052 5.86978 27.8177 7.18228C29.1302 8.49478 30.1692 10.0382 30.9349 11.8125C31.7005 13.5868 32.0833 15.4826 32.0833 17.5C32.0833 19.5173 31.7005 21.4132 30.9349 23.1875C30.1692 24.9618 29.1302 26.5052 27.8177 27.8177C26.5052 29.1302 24.9618 30.1693 23.1875 30.9349C21.4132 31.7005 19.5173 32.0833 17.5 32.0833ZM17.5 29.1667C20.7569 29.1667 23.5156 28.0364 25.776 25.776C28.0364 23.5156 29.1666 20.7569 29.1666 17.5C29.1666 14.243 28.0364 11.4844 25.776 9.22395C23.5156 6.96353 20.7569 5.83332 17.5 5.83332C14.243 5.83332 11.4843 6.96353 9.22392 9.22395C6.9635 11.4844 5.83329 14.243 5.83329 17.5C5.83329 20.7569 6.9635 23.5156 9.22392 25.776C11.4843 28.0364 14.243 29.1667 17.5 29.1667Z" fill="#1C1B1F"/>
</g>
</g>
</svg>
