<svg width="95" height="42" viewBox="0 0 95 42" fill="none" xmlns="http://www.w3.org/2000/svg">
<mask id="mask0_6_48" style="mask-type:alpha" maskUnits="userSpaceOnUse" x="70" y="16" width="25" height="24">
<rect x="70.7447" y="16.2273" width="24.2553" height="22.9091" fill="#D9D9D9"/>
</mask>
<g mask="url(#mask0_6_48)">
<path d="M81.4575 32.0727L88.5825 25.3432L87.1676 24.0068L81.4575 29.4L78.5772 26.6796L77.1623 28.0159L81.4575 32.0727ZM82.8724 37.2273C81.4743 37.2273 80.1605 36.9767 78.9309 36.4756C77.7013 35.9744 76.6317 35.2943 75.7221 34.4352C74.8125 33.5761 74.0925 32.5659 73.5619 31.4046C73.0313 30.2432 72.766 29.0023 72.766 27.6818C72.766 26.3614 73.0313 25.1205 73.5619 23.9591C74.0925 22.7977 74.8125 21.7875 75.7221 20.9284C76.6317 20.0693 77.7013 19.3892 78.9309 18.8881C80.1605 18.3869 81.4743 18.1364 82.8724 18.1364C84.2704 18.1364 85.5843 18.3869 86.8139 18.8881C88.0435 19.3892 89.1131 20.0693 90.0226 20.9284C90.9322 21.7875 91.6523 22.7977 92.1829 23.9591C92.7135 25.1205 92.9788 26.3614 92.9788 27.6818C92.9788 29.0023 92.7135 30.2432 92.1829 31.4046C91.6523 32.5659 90.9322 33.5761 90.0226 34.4352C89.1131 35.2943 88.0435 35.9744 86.8139 36.4756C85.5843 36.9767 84.2704 37.2273 82.8724 37.2273ZM82.8724 35.3182C85.1295 35.3182 87.0413 34.5784 88.6077 33.0989C90.1742 31.6193 90.9575 29.8136 90.9575 27.6818C90.9575 25.55 90.1742 23.7443 88.6077 22.2648C87.0413 20.7852 85.1295 20.0455 82.8724 20.0455C80.6153 20.0455 78.7035 20.7852 77.137 22.2648C75.5705 23.7443 74.7873 25.55 74.7873 27.6818C74.7873 29.8136 75.5705 31.6193 77.137 33.0989C78.7035 34.5784 80.6153 35.3182 82.8724 35.3182Z" fill="#1C1B1F"/>
</g>
<path d="M5.83484 14.3125V11.5H25.4712V14.3125H17.2382V37.6818H14.0678V14.3125H5.83484ZM35.0848 38.0909C33.3121 38.0909 31.7567 37.669 30.4186 36.8253C29.0891 35.9815 28.0493 34.8011 27.2993 33.2841C26.5578 31.7671 26.1871 29.9943 26.1871 27.9659C26.1871 25.9205 26.5578 24.1349 27.2993 22.6094C28.0493 21.0838 29.0891 19.8992 30.4186 19.0554C31.7567 18.2117 33.3121 17.7898 35.0848 17.7898C36.8576 17.7898 38.4087 18.2117 39.7382 19.0554C41.0763 19.8992 42.1161 21.0838 42.8576 22.6094C43.6076 24.1349 43.9826 25.9205 43.9826 27.9659C43.9826 29.9943 43.6076 31.7671 42.8576 33.2841C42.1161 34.8011 41.0763 35.9815 39.7382 36.8253C38.4087 37.669 36.8576 38.0909 35.0848 38.0909ZM35.0848 35.3807C36.4314 35.3807 37.5394 35.0355 38.4087 34.3452C39.278 33.6548 39.9215 32.7472 40.3391 31.6222C40.7567 30.4972 40.9655 29.2784 40.9655 27.9659C40.9655 26.6534 40.7567 25.4304 40.3391 24.2969C39.9215 23.1634 39.278 22.2472 38.4087 21.5483C37.5394 20.8494 36.4314 20.5 35.0848 20.5C33.7382 20.5 32.6303 20.8494 31.761 21.5483C30.8917 22.2472 30.2482 23.1634 29.8306 24.2969C29.413 25.4304 29.2042 26.6534 29.2042 27.9659C29.2042 29.2784 29.413 30.4972 29.8306 31.6222C30.2482 32.7472 30.8917 33.6548 31.761 34.3452C32.6303 35.0355 33.7382 35.3807 35.0848 35.3807ZM57.0767 37.6818H48.9971V11.5H57.4346C59.9744 11.5 62.1477 12.0242 63.9545 13.0724C65.7613 14.1122 67.1463 15.608 68.1093 17.5597C69.0724 19.5028 69.5539 21.8296 69.5539 24.5398C69.5539 27.2671 69.0681 29.6151 68.0966 31.5838C67.125 33.544 65.7102 35.0526 63.8522 36.1094C61.9943 37.1577 59.7358 37.6818 57.0767 37.6818ZM52.1676 34.8693H56.8721C59.0369 34.8693 60.8309 34.4517 62.2542 33.6165C63.6775 32.7813 64.7386 31.5923 65.4375 30.0497C66.1363 28.5071 66.4858 26.6705 66.4858 24.5398C66.4858 22.4261 66.1406 20.6065 65.4502 19.081C64.7599 17.5469 63.7287 16.3707 62.3565 15.5526C60.9843 14.7259 59.2755 14.3125 57.2301 14.3125H52.1676V34.8693Z" fill="black"/>
<mask id="mask1_6_48" style="mask-type:alpha" maskUnits="userSpaceOnUse" x="4" y="0" width="25" height="24">
<rect x="4.04254" width="24.2553" height="23.8636" fill="#D9D9D9"/>
</mask>
<g mask="url(#mask1_6_48)">
<path d="M10.8138 13.8929L5.1037 9.09894L6.54386 7.91106L12.254 12.705L10.8138 13.8929ZM16.5239 13.8929L10.8138 9.09894L12.2287 7.88985L16.5239 11.4959L25.8218 3.68985L27.2367 4.89894L16.5239 13.8929ZM16.5239 9.09894L15.0838 7.91106L20.0864 3.71106L21.5266 4.89894L16.5239 9.09894Z" fill="#1C1B1F"/>
</g>
</svg>
