<svg width="259" height="259" viewBox="0 0 259 259" fill="none" xmlns="http://www.w3.org/2000/svg">
<mask id="mask0_15_26" style="mask-type:alpha" maskUnits="userSpaceOnUse" x="0" y="0" width="259" height="259">
<rect width="258.317" height="258.317" fill="#D9D9D9"/>
</mask>
<g mask="url(#mask0_15_26)">
<path d="M129.158 236.79C124.494 236.79 120.279 235.669 116.512 233.427C112.744 231.184 109.785 228.18 107.632 224.413C101.712 224.413 96.6445 222.305 92.4289 218.089C88.2134 213.874 86.1056 208.806 86.1056 202.886V164.677C75.5218 157.681 67.0457 148.442 60.6775 136.962C54.3093 125.481 51.1252 113.014 51.1252 99.5596C51.1252 77.8538 58.7043 59.4218 73.8624 44.2636C89.0206 29.1055 107.453 21.5264 129.158 21.5264C150.864 21.5264 169.296 29.1055 184.454 44.2636C199.612 59.4218 207.192 77.8538 207.192 99.5596C207.192 113.372 204.007 125.929 197.639 137.231C191.271 148.532 182.795 157.681 172.211 164.677V202.886C172.211 208.806 170.103 213.874 165.888 218.089C161.672 222.305 156.604 224.413 150.685 224.413C148.532 228.18 145.572 231.184 141.805 233.427C138.038 235.669 133.822 236.79 129.158 236.79ZM107.632 202.886H150.685V193.199H107.632V202.886ZM107.632 182.436H150.685V172.211H107.632V182.436ZM105.479 150.685H121.086V121.624L97.4069 97.9451L108.708 86.6437L129.158 107.094L149.608 86.6437L160.91 97.9451L137.231 121.624V150.685H152.837C162.524 146.021 170.417 139.159 176.516 130.1C182.616 121.041 185.665 110.861 185.665 99.5596C185.665 83.7735 180.194 70.4092 169.251 59.4667C158.309 48.5241 144.944 43.0528 129.158 43.0528C113.372 43.0528 100.008 48.5241 89.0654 59.4667C78.1229 70.4092 72.6516 83.7735 72.6516 99.5596C72.6516 110.861 75.7011 121.041 81.8003 130.1C87.8994 139.159 95.7924 146.021 105.479 150.685Z" fill="#1C1B1F" fill-opacity="0.1"/>
</g>
</svg>
